<svg version="1.1" id="Layer_1" xmlns="http://www.w3.org/2000/svg" xmlns:xlink="http://www.w3.org/1999/xlink" x="0px" y="0px"
	 width="100%" viewBox="0 0 500 500" enable-background="new 0 0 500 500" xml:space="preserve">
<path fill="none" opacity="1.000000" stroke="#000000" stroke-linecap="round" stroke-linejoin="round" stroke-width="6.000000"
	d="
M352.500000,189.500000 
	C349.862335,189.823990 349.403961,187.162308 348.640106,185.914261 
	C337.446960,167.625717 321.645660,154.243835 302.894836,144.706741 
	C289.142456,137.711960 274.220825,133.787704 258.506287,132.890198 
	C230.712738,131.302811 205.703705,138.393707 182.947266,154.425156 
	C169.556396,163.858749 158.831039,175.509766 150.500000,189.500000 
"/>
<path fill="none" opacity="1.000000" stroke="#000000" stroke-linecap="round" stroke-linejoin="round" stroke-width="6.000000"
	d="
M150.500000,316.500000 
	C150.429962,320.580719 153.579102,323.139191 155.624481,325.908051 
	C177.707092,355.801483 207.446991,372.574158 244.510864,374.820862 
	C272.871460,376.540009 298.732666,368.289612 321.497070,350.996124 
	C331.977570,343.034393 340.883545,333.624054 348.117584,322.576996 
	C349.105347,321.068634 349.380493,318.011383 352.500000,318.500000 
"/>
<path fill="none" opacity="1.000000" stroke="#000000" stroke-linecap="round" stroke-linejoin="round" stroke-width="6.000000"
	d="
M200.500000,247.000000 
	C196.326523,251.443314 198.137283,256.958893 198.187759,261.998108 
	C198.211243,264.342468 198.196121,266.650146 198.154175,269.002747 
	C197.925369,281.829987 197.402725,294.705505 202.455261,307.018372 
	C209.430710,324.017212 228.535919,336.776611 245.997681,337.118408 
	C268.720093,337.563202 284.279327,327.307892 294.612030,307.558624 
	C297.569763,301.905457 298.516785,295.893768 298.768311,289.990143 
	C299.099792,282.208771 299.298615,274.358368 298.424225,266.453064 
	C298.008789,262.697174 299.258453,258.226105 299.040344,253.997925 
	C298.937531,252.004181 298.993225,250.062454 297.500000,248.500000 
"/>
<path fill="none" opacity="1.000000" stroke="#000000" stroke-linecap="round" stroke-linejoin="round" stroke-width="7.000000"
	d="
M297.000000,304.000000 
	C309.854309,305.252228 323.064240,308.187897 333.485107,296.986145 
	C339.760651,290.240356 340.612030,282.389374 337.474609,274.009491 
	C334.210022,265.289856 327.653473,260.655182 318.495422,260.071777 
	C312.519684,259.691101 306.500000,260.000000 300.500000,260.000000 
"/>
<path fill="none" opacity="1.000000" stroke="#000000" stroke-linecap="round" stroke-linejoin="round" stroke-width="6.000000"
	d="
M297.500000,266.000000 
	C290.892609,266.625275 284.953888,269.686554 278.527954,271.124878 
	C254.287094,276.550690 230.560928,274.251770 206.998260,267.506104 
	C204.511246,266.794098 202.000000,266.166656 199.500000,265.500000 
"/>
<path fill="none" opacity="1.000000" stroke="#000000" stroke-linecap="round" stroke-linejoin="round" stroke-width="6.000000"
	d="
M278.750000,230.500000 
	C275.623657,232.523666 272.241180,233.224564 268.497650,233.050262 
	C261.818726,232.739273 255.510452,235.335587 251.186539,239.685425 
	C241.365234,249.565598 229.877670,250.180328 217.516144,247.912003 
	C213.961258,247.259689 210.622040,246.622772 206.979355,247.403671 
	C204.521042,247.930695 201.762512,247.663589 200.270187,244.988739 
	C198.628220,242.045639 198.318253,239.296432 200.949951,236.453659 
	C204.834122,232.257919 209.761108,230.048340 215.012146,228.542328 
	C233.619873,223.205582 252.463531,222.530701 271.507141,225.960281 
	C276.299225,226.823273 279.161072,231.414856 284.000732,231.993896 
	C287.813812,232.450104 290.934845,234.367599 294.009888,236.485641 
	C300.311920,240.826431 300.268188,245.529602 294.015228,249.523834 
	C283.927551,255.967575 272.670074,257.775269 261.019348,259.162598 
	C245.656143,260.992035 230.784775,259.326141 216.007690,255.470535 
	C211.879807,254.393494 207.680038,253.195175 206.000000,248.500000 
"/>
<path fill="none" opacity="1.000000" stroke="#000000" stroke-linecap="round" stroke-linejoin="round" stroke-width="6.000000"
	d="
M249.500000,174.500000 
	C249.436478,167.844025 246.336395,162.965179 240.471893,160.056671 
	C236.787308,158.229279 232.947250,158.217728 229.499054,160.998825 
	C225.332260,164.359436 223.028671,168.560593 224.282730,173.992447 
	C226.469711,183.465164 231.864426,191.267334 238.120605,198.394135 
	C240.004501,200.540207 240.930466,204.019775 244.500000,204.500000 
"/>
<path fill="none" opacity="1.000000" stroke="#000000" stroke-linecap="round" stroke-linejoin="round" stroke-width="7.000000"
	d="
M249.500000,113.500000 
	C243.836975,113.054535 238.596649,115.484535 233.007584,115.862137 
	C225.964981,116.337944 222.659134,113.960167 221.969833,107.002991 
	C221.456406,101.821144 220.709717,96.660591 219.981766,91.502571 
	C219.619812,88.937935 217.923325,88.115013 215.500000,88.500000 
"/>
<path fill="none" opacity="1.000000" stroke="#000000" stroke-linecap="round" stroke-linejoin="round" stroke-width="6.000000"
	d="
M278.000000,100.500000 
	C277.666718,102.833290 278.719299,103.353981 280.988708,103.602837 
	C285.304993,104.076172 285.738098,105.369148 285.087250,109.513702 
	C284.615936,112.514793 285.598999,116.466423 282.413696,117.792694 
	C279.358093,119.064957 275.744110,117.397652 272.512817,116.455986 
	C266.004944,114.559456 262.824188,108.765221 264.091949,100.013321 
	C265.180908,92.495590 269.543060,87.475121 275.000092,87.252274 
	C278.894226,87.093254 282.727722,87.709808 286.485779,88.562614 
	C288.877197,89.105286 289.340149,91.329247 289.500000,93.500000 
"/>
<path fill="none" opacity="1.000000" stroke="#000000" stroke-linecap="round" stroke-linejoin="round" stroke-width="6.000000"
	d="
M254.500000,205.500000 
	C260.804840,204.449249 271.619659,194.351898 272.989563,188.497559 
	C273.960449,184.348282 270.256439,178.847534 266.000000,177.999985 
	C259.947845,176.794907 255.495377,179.698685 254.500000,185.500000 
"/>
<path fill="none" opacity="1.000000" stroke="#000000" stroke-linecap="round" stroke-linejoin="round" stroke-width="6.000000"
	d="
M146.750000,254.000000 
	C146.645706,262.133057 140.250061,265.651886 134.996689,269.996002 
	C128.952896,274.993744 126.957336,281.630737 128.369141,288.977112 
	C129.672470,295.759033 134.003693,300.360168 140.874146,302.251038 
	C147.693649,288.647949 146.971222,280.530090 135.500000,271.000000 
"/>
<path fill="none" opacity="1.000000" stroke="#000000" stroke-linecap="round" stroke-linejoin="round" stroke-width="6.000000"
	d="
M133.000000,237.500000 
	C127.099472,239.314529 122.033005,242.039993 119.963020,248.488129 
	C118.942513,251.667068 118.476906,254.812546 119.531021,257.989716 
	C120.557213,261.082703 121.268379,263.863861 125.330902,265.436768 
	C127.469162,266.264618 130.120331,268.725647 132.500000,270.500000 
"/>
<path fill="none" opacity="1.000000" stroke="#000000" stroke-linecap="round" stroke-linejoin="round" stroke-width="6.000000"
	d="
M368.500000,238.000000 
	C365.509155,240.499329 362.724518,243.334641 360.166107,246.150909 
	C355.565918,251.214798 355.975464,258.624695 362.533051,264.965820 
	C364.485596,266.853912 366.851654,268.310150 368.996521,270.004395 
	C375.022949,274.764801 376.862183,281.480072 375.804077,288.470337 
	C374.819641,294.973816 370.677429,299.882660 363.996155,301.987762 
	C363.692902,302.083313 363.333344,302.000000 363.000000,302.000000 
	C357.019928,290.942078 356.121216,280.960632 368.500000,271.000000 
"/>
<path fill="none" opacity="1.000000" stroke="#000000" stroke-linecap="round" stroke-linejoin="round" stroke-width="6.000000"
	d="
M135.500000,237.000000 
	C137.333328,235.000000 139.421341,233.176788 140.954437,230.968369 
	C146.586746,222.855118 146.343872,213.955460 140.500000,205.500000 
	C126.915855,210.325012 123.907867,227.101196 134.500000,237.500000 
"/>
<path fill="none" opacity="1.000000" stroke="#000000" stroke-linecap="round" stroke-linejoin="round" stroke-width="6.000000"
	d="
M369.500000,237.500000 
	C382.423340,240.081055 387.705963,248.991867 383.588593,260.531616 
	C381.934448,265.167633 377.084991,265.708984 374.446747,268.956757 
	C373.804535,269.747375 372.500000,270.000000 371.500000,270.500000 
"/>
<path fill="none" opacity="1.000000" stroke="#000000" stroke-linecap="round" stroke-linejoin="round" stroke-width="6.000000"
	d="
M364.000000,206.000000 
	C373.707703,208.938904 379.753998,220.863342 372.995575,233.497635 
	C372.362000,234.682007 371.666687,235.833344 371.000000,237.000015 
"/>
<path fill="none" opacity="1.000000" stroke="#000000" stroke-linecap="round" stroke-linejoin="round" stroke-width="6.000000"
	d="
M362.750000,204.500000 
	C362.070557,208.285995 360.152618,211.655563 359.379791,215.475677 
	C358.040436,222.096161 359.794617,227.569275 364.019043,232.483612 
	C365.397949,234.087723 367.000000,235.500000 368.500000,237.000000 
"/>
<path fill="none" opacity="1.000000" stroke="#000000" stroke-linecap="round" stroke-linejoin="round" stroke-width="5.000000"
	d="
M152.500000,359.500000 
	C153.205246,358.520050 153.910507,357.540100 154.739899,356.387634 
	C150.534592,352.101685 146.882202,346.242126 140.044937,347.709412 
	C133.796906,349.050293 130.020905,353.927948 129.000000,360.500000 
"/>
<path fill="none" opacity="1.000000" stroke="#000000" stroke-linecap="round" stroke-linejoin="round" stroke-width="5.000000"
	d="
M311.500000,392.999969 
	C314.166656,391.999969 316.855621,391.055023 319.494110,389.985474 
	C322.514374,388.761139 324.667450,383.824768 323.500000,381.000000 
	C322.007843,377.389587 318.865143,375.839569 315.007874,377.025635 
	C311.778442,378.018646 308.365143,378.779297 306.016846,381.514465 
	C304.706116,383.041138 303.039856,382.346008 301.500000,382.500000 
"/>
<path fill="none" opacity="1.000000" stroke="#000000" stroke-linecap="round" stroke-linejoin="round" stroke-width="7.000000"
	d="
M241.999985,87.000000 
	C242.999985,94.000000 244.013000,100.998184 244.990387,108.001343 
	C245.221741,109.658981 245.333344,111.333336 245.500015,113.000000 
"/>
<path fill="none" opacity="1.000000" stroke="#000000" stroke-linecap="round" stroke-linejoin="round" stroke-width="6.000000"
	d="
M255.500000,393.000000 
	C255.328934,400.190125 257.137390,407.288177 256.500000,414.500000 
"/>
<path fill="none" opacity="1.000000" stroke="#000000" stroke-linecap="round" stroke-linejoin="round" stroke-width="6.000000"
	d="
M141.250000,245.000000 
	C135.881256,251.535049 128.120712,256.268890 126.000000,265.250000 
"/>
<path fill="none" opacity="1.000000" stroke="#000000" stroke-linecap="round" stroke-linejoin="round" stroke-width="7.000000"
	d="
M144.000000,130.500000 
	C150.000000,137.000000 156.000000,143.500000 162.000000,150.000000 
"/>
<path fill="none" opacity="1.000000" stroke="#000000" stroke-linecap="round" stroke-linejoin="round" stroke-width="6.000000"
	d="
M363.000000,245.500000 
	C368.635559,251.600616 375.817017,256.527161 378.000000,265.250000 
"/>
<path fill="none" opacity="1.000000" stroke="#000000" stroke-linecap="round" stroke-linejoin="round" stroke-width="7.000000"
	d="
M351.500000,125.500000 
	C345.666656,132.000000 339.833344,138.500000 334.000000,145.000000 
"/>
<path fill="none" opacity="1.000000" stroke="#000000" stroke-linecap="round" stroke-linejoin="round" stroke-width="5.000000"
	d="
M298.000000,405.500000 
	C297.858582,409.025269 296.070129,410.216980 292.576416,411.256744 
	C288.553528,412.454041 284.077789,410.640015 280.500000,413.500000 
"/>
<path fill="none" opacity="1.000000" stroke="#000000" stroke-linecap="round" stroke-linejoin="round" stroke-width="6.000000"
	d="
M171.000000,369.500000 
	C164.907883,374.021027 159.033081,378.804291 153.500000,384.000000 
"/>
<path fill="none" opacity="1.000000" stroke="#000000" stroke-linecap="round" stroke-linejoin="round" stroke-width="5.000000"
	d="
M335.000000,366.000000 
	C333.802612,366.627197 333.892975,367.615082 334.518311,368.486877 
	C338.482269,374.012726 342.500000,379.500000 346.500000,385.000000 
"/>
<path fill="none" opacity="1.000000" stroke="#000000" stroke-linecap="round" stroke-linejoin="round" stroke-width="5.000000"
	d="
M214.000000,412.000000 
	C218.416092,411.586182 222.247391,413.994904 226.474289,414.662720 
	C229.506088,415.141693 231.556931,414.532623 233.500000,412.500000 
"/>
<path fill="none" opacity="1.000000" stroke="#000000" stroke-linecap="round" stroke-linejoin="round" stroke-width="7.000000"
	d="
M183.000000,102.000000 
	C183.961441,111.386459 184.067017,120.895187 187.000000,130.000000 
"/>
<path fill="none" opacity="1.000000" stroke="#000000" stroke-linecap="round" stroke-linejoin="round" stroke-width="5.000000"
	d="
M308.500000,94.500000 
	C309.115997,96.550667 310.216339,98.098900 312.499237,98.504311 
	C318.367401,99.546402 323.245728,102.647743 328.000000,106.000000 
"/>
<path fill="none" opacity="1.000000" stroke="#000000" stroke-linecap="round" stroke-linejoin="round" stroke-width="5.000000"
	d="
M292.750000,388.000000 
	C292.375244,386.506500 291.271942,386.351593 289.999939,386.499542 
	C284.960297,387.085693 280.290131,389.010010 275.500000,390.500000 
"/>
<path fill="none" opacity="1.000000" stroke="#000000" stroke-linecap="round" stroke-linejoin="round" stroke-width="6.000000"
	d="
M171.500000,367.500000 
	C176.160675,372.178375 173.390305,377.148529 171.966187,381.990051 
	C170.799698,385.955780 171.012268,390.253082 169.000000,394.000000 
"/>
<path fill="none" opacity="1.000000" stroke="#000000" stroke-linecap="round" stroke-linejoin="round" stroke-width="5.000000"
	d="
M235.500000,392.500000 
	C231.268036,388.593414 226.032898,389.535431 221.000000,389.500000 
"/>
<path fill="none" opacity="1.000000" stroke="#000000" stroke-linecap="round" stroke-linejoin="round" stroke-width="6.000000"
	d="
M295.500000,120.500000 
	C296.952850,124.118431 300.624084,124.791145 303.509125,126.484482 
	C306.468018,128.221176 309.335236,130.535065 312.549377,131.289658 
	C315.389801,131.956528 315.318756,133.741928 316.000000,135.500000 
"/>
<path fill="none" opacity="1.000000" stroke="#000000" stroke-linecap="round" stroke-linejoin="round" stroke-width="5.000000"
	d="
M158.000000,118.500000 
	C155.522186,117.088722 153.604660,118.621574 152.052322,120.056602 
	C149.202133,122.691414 146.466492,125.511353 144.092148,128.571503 
	C143.047760,129.917542 141.915359,130.514832 140.500000,131.000000 
"/>
<path fill="none" opacity="1.000000" stroke="#000000" stroke-linecap="round" stroke-linejoin="round" stroke-width="5.000000"
	d="
M208.000000,388.000000 
	C208.014801,387.166656 209.338013,386.059692 207.981064,385.550446 
	C203.618744,383.913391 199.590240,380.889984 194.500000,382.000000 
"/>
<path fill="none" opacity="1.000000" stroke="#000000" stroke-linecap="round" stroke-linejoin="round" stroke-width="5.000000"
	d="
M127.500000,360.500000 
	C128.083328,360.666687 129.169067,360.811859 129.177246,361.003113 
	C129.450714,367.394501 135.177765,369.836639 138.500000,374.000000 
"/>
<path fill="none" opacity="1.000000" stroke="#000000" stroke-linecap="round" stroke-linejoin="round" stroke-width="6.000000"
	d="
M198.000000,111.500000 
	C194.771622,115.091209 190.201996,116.206245 186.000000,118.000000 
"/>
<path fill="none" opacity="1.000000" stroke="#000000" stroke-linecap="round" stroke-linejoin="round" stroke-width="6.000000"
	d="
M311.500000,99.000000 
	C307.580475,107.292763 303.783478,115.648033 299.000000,123.500000 
"/>
<path fill="none" opacity="1.000000" stroke="#000000" stroke-linecap="round" stroke-linejoin="round" stroke-width="6.000000"
	d="
M265.500000,394.500000 
	C264.628876,392.556671 263.645630,391.134705 260.992126,391.428925 
	C257.022430,391.869049 253.000748,391.930389 248.999695,391.961456 
	C246.803055,391.978546 245.801682,392.801697 246.000000,395.000000 
"/>
<path fill="none" opacity="1.000000" stroke="#000000" stroke-linecap="round" stroke-linejoin="round" stroke-width="7.000000"
	d="
M180.500000,100.500000 
	C183.034027,102.554482 184.817169,99.728294 187.455750,99.450279 
	C194.018677,106.164757 201.220276,112.655289 207.000000,120.500000 
"/>
<path fill="none" opacity="1.000000" stroke="#000000" stroke-linecap="round" stroke-linejoin="round" stroke-width="5.000000"
	d="
M350.500000,352.500000 
	C353.406250,352.032745 352.664398,354.827179 353.407898,356.055725 
	C356.725769,361.538055 358.408325,367.911285 362.500000,373.000000 
"/>
<path fill="none" opacity="1.000000" stroke="#000000" stroke-linecap="round" stroke-linejoin="round" stroke-width="6.000000"
	d="
M352.000000,352.500000 
	C353.167999,350.586670 355.448792,349.595520 356.916473,350.619690 
	C362.655518,354.624573 369.987457,355.807251 375.000000,361.000000 
"/>
<path fill="none" opacity="1.000000" stroke="#000000" stroke-linecap="round" stroke-linejoin="round" stroke-width="6.000000"
	d="
M191.500000,377.500000 
	C196.483994,386.715759 189.859879,393.760712 186.972092,401.489563 
	C186.441757,402.908997 185.156830,402.627350 184.000000,402.250000 
"/>
<path fill="none" opacity="1.000000" stroke="#000000" stroke-linecap="round" stroke-linejoin="round" stroke-width="6.000000"
	d="
M218.750000,388.500000 
	C221.512512,389.864410 220.813019,392.554321 220.384476,394.474213 
	C219.122726,400.126892 219.266281,406.059723 217.000000,411.500000 
"/>
<path fill="none" opacity="1.000000" stroke="#000000" stroke-linecap="round" stroke-linejoin="round" stroke-width="6.000000"
	d="
M278.000000,391.000000 
	C280.230408,397.695831 281.535370,404.617401 283.000000,411.500000 
"/>
<path fill="none" opacity="1.000000" stroke="#000000" stroke-linecap="round" stroke-linejoin="round" stroke-width="6.000000"
	d="
M135.500000,238.000000 
	C138.166672,240.666672 140.695999,243.493378 143.549698,245.942078 
	C145.362015,247.497208 146.007126,249.487839 146.405243,251.518570 
	C146.688171,252.961761 146.935455,253.731216 148.500000,253.500000 
"/>
<path fill="none" opacity="1.000000" stroke="#000000" stroke-linecap="round" stroke-linejoin="round" stroke-width="5.000000"
	d="
M305.500000,383.000000 
	C308.166656,388.333344 311.003662,393.591370 313.411774,399.039001 
	C314.309723,401.070312 314.661163,403.614532 312.500000,405.500000 
"/>
<path fill="none" opacity="1.000000" stroke="#000000" stroke-linecap="round" stroke-linejoin="round" stroke-width="6.000000"
	d="
M338.500000,119.500000 
	C345.712433,116.602852 347.270599,116.483795 350.755493,122.638443 
	C352.646484,125.978050 356.078125,125.831451 358.161652,128.367188 
	C360.049927,130.665298 360.535950,132.478882 359.500000,135.000000 
"/>
<path fill="none" opacity="1.000000" stroke="#000000" stroke-linecap="round" stroke-linejoin="round" stroke-width="5.000000"
	d="
M307.000000,111.500000 
	C309.166656,112.666664 311.282990,113.942238 313.512421,114.973122 
	C316.464325,116.338058 317.573090,115.318916 317.500000,111.500000 
"/>
<path fill="none" opacity="1.000000" stroke="#000000" stroke-linecap="round" stroke-linejoin="round" stroke-width="4.000000"
	d="
M321.500000,390.000000 
	C323.669495,392.413147 327.402222,392.872223 329.000000,396.000000 
"/>
<path fill="none" opacity="1.000000" stroke="#000000" stroke-linecap="round" stroke-linejoin="round" stroke-width="5.000000"
	d="
M191.500000,393.500000 
	C193.679932,393.901489 195.128494,395.821716 197.483490,396.127289 
	C198.924210,396.314240 199.691635,397.897614 198.500000,399.500000 
"/>
<path fill="none" opacity="1.000000" stroke="#000000" stroke-linecap="round" stroke-linejoin="round" stroke-width="5.000000"
	d="
M291.000000,402.500000 
	C290.332275,400.601685 290.141663,398.418518 286.946136,399.882446 
	C285.370667,400.604218 283.155975,399.691162 281.500000,401.000000 
"/>
<path fill="none" opacity="1.000000" stroke="#000000" stroke-linecap="round" stroke-linejoin="round" stroke-width="6.000000"
	d="
M238.500000,69.000000 
	C231.962769,70.862877 225.139313,70.675789 218.471085,71.833435 
	C197.203323,75.525635 177.488205,83.085060 159.012573,94.021248 
	C128.714569,111.955391 105.532021,136.706299 89.551346,168.026199 
	C75.312340,195.932632 69.103081,225.693146 70.510147,256.999542 
	C72.176613,294.077545 83.924042,327.783051 106.143890,357.392029 
	C121.329987,377.628204 140.151428,394.130981 162.460831,406.570251 
	C184.659073,418.947510 208.325806,426.757935 233.512451,428.850189 
	C277.704041,432.521118 318.616852,422.302612 354.946930,396.425507 
	C388.264069,372.694550 411.117981,340.975464 423.399811,301.968445 
	C429.829590,281.547455 432.386292,260.365631 430.886200,239.007996 
	C428.292816,202.084732 416.393951,168.385406 393.464630,139.027634 
	C371.273651,110.615158 343.066406,90.433815 309.001770,78.494980 
	C286.312195,70.542839 262.859467,68.289993 239.000000,69.000000 
"/>
</svg>